<?xml version="1.0" encoding="UTF-8"?>
<!DOCTYPE svg PUBLIC "-//W3C//DTD SVG 1.1//EN" "http://www.w3.org/Graphics/SVG/1.1/DTD/svg11.dtd">
<!-- Creator: CorelDRAW 2019 (64-Bit) -->
<svg xmlns="http://www.w3.org/2000/svg" xml:space="preserve" width="8.5in" height="8.5in" version="1.1" style="shape-rendering:geometricPrecision; text-rendering:geometricPrecision; image-rendering:optimizeQuality; fill-rule:evenodd; clip-rule:evenodd"
viewBox="0 0 8500 8500"
 xmlns:xlink="http://www.w3.org/1999/xlink"
 xmlns:xodm="http://www.corel.com/coreldraw/odm/2003">
 <defs>
  <style type="text/css">
   <![CDATA[
    .fil0 {fill:none}
    .fil1 {fill:#FFFFFF}
   ]]>
  </style>
 </defs>
 <g id="Layer_x0020_1">
  <metadata id="CorelCorpID_0Corel-Layer"/>
  <rect class="fil0" x="-0" y="-0" width="8500" height="8500"/>
  <g id="_2574606542848">
   <path class="fil1" d="M3831.69 2815.2l-2131.12 0c-42.46,17.75 -22.92,2.28 -55.56,52.48l-1066.79 1859.76c-9.59,52.41 727.53,1297.59 815.9,1445.33 55.4,92.59 226.25,421.3 281.58,474.24l2191.59 0.3c58.19,-61.09 702.77,-1235.48 777.69,-1359.54 66.17,-109.55 125.74,-228.81 193.13,-342.14 141.16,-237.33 160.74,-235.96 118.47,-357.51 -85.95,-247.2 -195.13,-561.24 -259.28,-807.44l-643.42 1019.52c-46.2,73.64 -603.63,966.52 -623.61,1029.28l-1286.39 -1.76 -326.98 -568c-41.6,-69.17 -317.42,-524.49 -327.2,-562.96 -12.77,-50.22 259.77,-479.72 306.56,-563.02 51.91,-92.41 106.74,-183.6 163.98,-282.07 33.05,-56.82 117.96,-234.38 171.43,-263.55l1290.04 -0.33 409.95 -772.6z"/>
   <path class="fil1" d="M3811.64 4712.24c15.2,-17.03 30.37,-35.77 47.41,-62.16 14.57,-22.56 21.39,-36.45 38.35,-65.3l1172.97 -1918.58 1283.19 2.93 655.36 1128.02c13.04,43.79 -109.08,225.62 -141.16,278.85 -56,92.91 -107.92,185.18 -163.18,282.91 -45.2,79.96 -283.72,516.06 -335.85,548.87l-1290 -2.32 -409.23 775.26 2145.24 -1.88c57.58,-65.55 101.04,-164.6 148.44,-243.7l412.99 -716.85c61.33,-109.22 540.49,-916.94 545.65,-952.7 5.81,-40.19 -483.14,-863.7 -540.79,-963.07 -94.56,-162.93 -182.74,-322.58 -277.43,-481.12l-268.13 -468.69 -2218.26 2.65 -1055.97 1873.21c-57.44,98.22 -56.42,71.06 -16.61,189.53 52.94,157.58 203.51,698.93 267.02,794.15z"/>
  </g>
 </g>
</svg>
